<svg xmlns="http://www.w3.org/2000/svg" viewBox="0 0 40 40"><defs><style>.cls-1{fill:#fff;}</style></defs><g id="Layer_2" data-name="Layer 2"><g id="Layer_1-2" data-name="Layer 1"><path class="cls-1" d="M20,16.61a3.29,3.29,0,0,0-3.31,3.29A3.32,3.32,0,1,0,20,16.61Z"/><path class="cls-1" d="M24.27,11.79c-2.87,0-5.75,0-8.62,0a3.58,3.58,0,0,0-3.82,3.73q0,4.4,0,8.79a3.61,3.61,0,0,0,3.64,3.76c3.08.07,6.16,0,9.24,0a3.43,3.43,0,0,0,2.23-.92,3.47,3.47,0,0,0,1.19-2.61c0-1.52,0-3.05,0-4.58h0c0-1.43,0-2.86,0-4.29A3.7,3.7,0,0,0,24.27,11.79ZM19.75,25a5.1,5.1,0,1,1,5.39-5A5.11,5.11,0,0,1,19.75,25Zm5.55-9.25a1.15,1.15,0,0,1-1.19-1.17,1.17,1.17,0,0,1,1.2-1.21,1.19,1.19,0,0,1,0,2.38Z"/><path class="cls-1" d="M20,0A20,20,0,1,0,40,20,20,20,0,0,0,20,0ZM30,23.94a9.26,9.26,0,0,1-.14,1.57,5.29,5.29,0,0,1-4.89,4.42c-1.12.08-2.24.07-3.37.07-2.17,0-4.36,0-6.53-.08a5.3,5.3,0,0,1-4.95-5.18c0-1.58,0-3.16,0-4.75s-.06-3.13,0-4.7a5.27,5.27,0,0,1,2.23-4.22,5.38,5.38,0,0,1,3.15-1c3,0,6.08,0,9.12,0a5.32,5.32,0,0,1,5.3,5.06C30,18,30,21,30,23.94Z"/></g></g></svg>