<svg xmlns="http://www.w3.org/2000/svg" viewBox="0 0 40 40"><defs><style>.cls-1{fill:#fff;}</style></defs><g id="Layer_2" data-name="Layer 2"><g id="Layer_1-2" data-name="Layer 1"><path class="cls-1" d="M18,22.57l5.16-2.8L18,17Z"/><path class="cls-1" d="M20,0A20,20,0,1,0,40,20,20,20,0,0,0,20,0Zm9.59,24.77A2.56,2.56,0,0,1,27,27.05a6.34,6.34,0,0,1-.75.07c-2.06,0-10.78.08-13.08-.09-1.8-.14-2.5-.74-2.78-2.52a27.74,27.74,0,0,1,0-9.27,2.56,2.56,0,0,1,2.81-2.35c4.51,0,9-.05,13.52,0,1.74,0,2.64.78,2.91,2.61A28.55,28.55,0,0,1,29.59,24.77Z"/></g></g></svg>